<?xml version="1.0" encoding="utf-8"?>
<!-- Generator: Adobe Illustrator 21.0.0, SVG Export Plug-In . SVG Version: 6.00 Build 0)  -->
<svg version="1.1" id="Layer_1" xmlns="http://www.w3.org/2000/svg" xmlns:xlink="http://www.w3.org/1999/xlink" x="0px" y="0px"
	 width="2800px" height="1800px" viewBox="0 0 2800 1800" style="enable-background:new 0 0 2800 1800;" xml:space="preserve">
<style type="text/css">
	.st0{fill:#C7EAFA;}
	.st1{fill:#B7D7F2;}
	.st2{fill:#95BFD8;}
	.st3{fill:#9AC6E4;}
	.st4{fill:#E4F5FD;}
	.st5{fill:#FFFFFF;}
	.st6{fill:#F27792;}
	.st7{fill:#6CC394;}
	.st8{fill:#52AF7B;}
	.st9{fill:#72AECC;}
	.st10{fill:#4896B5;}
	.st11{fill:#B1DCC1;}
	.st12{fill:#C7D5DE;}
	.st13{fill:#D6DFE8;}
	.st14{fill:#4D3656;}
	.st15{fill:#E8A572;}
	.st16{fill:#FCC687;}
	.st17{fill:#444B59;}
	.st18{fill:#5B6475;}
	.st19{fill:#F29A7F;}
	.st20{fill:#6C7687;}
	.st21{fill:#6D5E76;}
	.st22{fill:#FBDE8E;}
	.st23{opacity:0.44;fill:#FFFFFF;}
	.st24{fill:#D74C6B;}
	.st25{fill:#5D4E68;}
</style>
<rect class="st0" width="2800" height="1800"/>
<circle class="st1" cx="1400" cy="916.2829" r="712.75281"/>
<ellipse class="st2" cx="1400" cy="1557.09607" rx="952.37079" ry="85.54005"/>
<g>
	<path class="st3" d="M1078.22876,327.2731c-0.64111,0-1.29407-0.06644-1.94653-0.18851
		c-0.63025-0.13232-1.26111-0.32028-1.8584-0.57465c-0.59741-0.24359-1.17261-0.55307-1.71436-0.91818
		c-0.55298-0.35431-1.06177-0.77451-1.5155-1.22818c-0.46448-0.46448-0.8739-0.97327-1.23901-1.51498
		c-0.35376-0.54227-0.66321-1.11746-0.9176-1.72562c-0.24353-0.59735-0.44287-1.22818-0.56433-1.85846
		c-0.13293-0.64166-0.19934-1.2941-0.19934-1.94653c0-0.64163,0.06641-1.30542,0.19934-1.94705
		c0.12146-0.63028,0.3208-1.26114,0.56433-1.85794c0.25439-0.59735,0.56384-1.1839,0.9176-1.71481
		c0.36511-0.55304,0.77454-1.06183,1.23901-1.5155c0.45374-0.46448,0.96252-0.87387,1.5155-1.23846
		c0.54175-0.36508,1.11694-0.66376,1.71436-0.91815c0.59729-0.24359,1.22815-0.44235,1.8584-0.56439
		c1.29407-0.2652,2.61035-0.2652,3.89355,0c0.64172,0.12204,1.26111,0.3208,1.85852,0.56439
		c0.60815,0.25439,1.18335,0.55307,1.7251,0.91815c0.54224,0.36459,1.05103,0.77399,1.5155,1.23846
		c0.45361,0.45367,0.8739,0.96246,1.23901,1.5155c0.35376,0.53091,0.6637,1.11746,0.90674,1.71481
		c0.25439,0.5968,0.44287,1.22766,0.5752,1.85794c0.12207,0.64163,0.18799,1.30542,0.18799,1.94705
		c0,0.65244-0.06592,1.30487-0.18799,1.94653c-0.13232,0.63028-0.3208,1.26111-0.5752,1.85846
		c-0.24304,0.60815-0.55298,1.18335-0.90674,1.72562c-0.36511,0.54172-0.7854,1.05051-1.23901,1.51498
		c-0.46448,0.45367-0.97327,0.87387-1.5155,1.22818c-0.54175,0.36511-1.11694,0.67459-1.7251,0.91818
		c-0.59741,0.25436-1.2168,0.44232-1.85852,0.57465C1079.53418,327.20667,1078.88171,327.2731,1078.22876,327.2731z"/>
	<path class="st3" d="M1068.27368,317.31799c0-5.49765,4.45801-9.95508,9.95508-9.95508l0,0
		c5.49768,0,9.95508,4.45743,9.95508,9.95508l0,0c0,5.49713-4.4574,9.95511-9.95508,9.95511l0,0
		C1072.73169,327.2731,1068.27368,322.81512,1068.27368,317.31799z"/>
	<path class="st3" d="M1770.55078,317.31799c0-5.49765,4.45801-9.95508,9.95508-9.95508l0,0
		c5.49707,0,9.95508,4.45743,9.95508,9.95508l0,0c0,5.49713-4.45801,9.95511-9.95508,9.95511l0,0
		C1775.00879,327.2731,1770.55078,322.81512,1770.55078,317.31799z M1729.24841,317.31799
		c0-5.49765,4.45679-9.95508,9.95508-9.95508l0,0c5.49707,0,9.95508,4.45743,9.95508,9.95508l0,0
		c0,5.49713-4.45801,9.95511-9.95508,9.95511l0,0C1733.7052,327.2731,1729.24841,322.81512,1729.24841,317.31799z
		 M1687.93408,317.31799c0-5.49765,4.45801-9.95508,9.95508-9.95508l0,0c5.49817,0,9.95508,4.45743,9.95508,9.95508l0,0
		c0,5.49713-4.45691,9.95511-9.95508,9.95511l0,0C1692.39209,327.2731,1687.93408,322.81512,1687.93408,317.31799z
		 M1646.62085,317.31799c0-5.49765,4.45801-9.95508,9.95508-9.95508l0,0c5.49719,0,9.95508,4.45743,9.95508,9.95508l0,0
		c0,5.49713-4.45789,9.95511-9.95508,9.95511l0,0C1651.07886,327.2731,1646.62085,322.81512,1646.62085,317.31799z
		 M1605.30652,317.31799c0-5.49765,4.45801-9.95508,9.95508-9.95508l0,0c5.49829,0,9.9552,4.45743,9.9552,9.95508l0,0
		c0,5.49713-4.45691,9.95511-9.9552,9.95511l0,0C1609.76453,327.2731,1605.30652,322.81512,1605.30652,317.31799z
		 M1564.00415,317.31799c0-5.49765,4.45801-9.95508,9.95508-9.95508l0,0c5.49817,0,9.95508,4.45743,9.95508,9.95508l0,0
		c0,5.49713-4.45691,9.95511-9.95508,9.95511l0,0C1568.46216,327.2731,1564.00415,322.81512,1564.00415,317.31799z
		 M1522.69092,317.31799c0-5.49765,4.45801-9.95508,9.95508-9.95508l0,0c5.49719,0,9.95508,4.45743,9.95508,9.95508l0,0
		c0,5.49713-4.45789,9.95511-9.95508,9.95511l0,0C1527.14893,327.2731,1522.69092,322.81512,1522.69092,317.31799z
		 M1481.37659,317.31799c0-5.49765,4.45801-9.95508,9.9552-9.95508l0,0c5.49817,0,9.95508,4.45743,9.95508,9.95508l0,0
		c0,5.49713-4.45691,9.95511-9.95508,9.95511l0,0C1485.83459,327.2731,1481.37659,322.81512,1481.37659,317.31799z
		 M1440.07422,317.31799c0-5.49765,4.45801-9.95508,9.95508-9.95508l0,0c5.48633,0,9.95508,4.45743,9.95508,9.95508l0,0
		c0,5.49713-4.46875,9.95511-9.95508,9.95511l0,0C1444.53223,327.2731,1440.07422,322.81512,1440.07422,317.31799z
		 M1398.76099,317.31799c0-5.49765,4.45801-9.95508,9.95508-9.95508l0,0c5.49719,0,9.9552,4.45743,9.9552,9.95508l0,0
		c0,5.49713-4.45801,9.95511-9.9552,9.95511l0,0C1403.21899,327.2731,1398.76099,322.81512,1398.76099,317.31799z
		 M1357.44727,317.31799c0-5.49765,4.45801-9.95508,9.95508-9.95508l0,0c5.49768,0,9.95508,4.45743,9.95508,9.95508l0,0
		c0,5.49713-4.4574,9.95511-9.95508,9.95511l0,0C1361.90527,327.2731,1357.44727,322.81512,1357.44727,317.31799z
		 M1316.1449,317.31799c0-5.49765,4.44653-9.95508,9.95508-9.95508l0,0c5.49707,0,9.94373,4.45743,9.94373,9.95508l0,0
		c0,5.49713-4.44666,9.95511-9.94373,9.95511l0,0C1320.59143,327.2731,1316.1449,322.81512,1316.1449,317.31799z
		 M1274.83105,317.31799c0-5.49765,4.45752-9.95508,9.95508-9.95508l0,0c5.49768,0,9.9552,4.45743,9.9552,9.95508l0,0
		c0,5.49713-4.45752,9.95511-9.9552,9.95511l0,0C1279.28857,327.2731,1274.83105,322.81512,1274.83105,317.31799z
		 M1233.51733,317.31799c0-5.49765,4.45801-9.95508,9.95508-9.95508l0,0c5.49768,0,9.95508,4.45743,9.95508,9.95508l0,0
		c0,5.49713-4.4574,9.95511-9.95508,9.95511l0,0C1237.97534,327.2731,1233.51733,322.81512,1233.51733,317.31799z
		 M1192.20361,317.31799c0-5.49765,4.45801-9.95508,9.95508-9.95508l0,0c5.49768,0,9.96643,4.45743,9.96643,9.95508l0,0
		c0,5.49713-4.46875,9.95511-9.96643,9.95511l0,0C1196.66162,327.2731,1192.20361,322.81512,1192.20361,317.31799z
		 M1150.90112,317.31799c0-5.49765,4.45752-9.95508,9.9552-9.95508l0,0c5.49756,0,9.95508,4.45743,9.95508,9.95508l0,0
		c0,5.49713-4.45752,9.95511-9.95508,9.95511l0,0C1155.35864,327.2731,1150.90112,322.81512,1150.90112,317.31799z
		 M1109.5874,317.31799c0-5.49765,4.45801-9.95508,9.95508-9.95508l0,0c5.49768,0,9.95508,4.45743,9.95508,9.95508l0,0
		c0,5.49713-4.4574,9.95511-9.95508,9.95511l0,0C1114.04541,327.2731,1109.5874,322.81512,1109.5874,317.31799z"/>
	<path class="st3" d="M1821.81909,327.2731c-0.65247,0-1.30493-0.06644-1.94653-0.19931
		c-0.63086-0.12152-1.26062-0.30948-1.85791-0.56384c-0.60925-0.24359-1.18396-0.55307-1.7262-0.91818
		c-0.54224-0.35431-1.05103-0.77451-1.50366-1.23898c-0.46558-0.45367-0.88574-0.96246-1.23889-1.50418
		c-0.36511-0.54227-0.66443-1.11746-0.91821-1.72562c-0.25488-0.59735-0.44287-1.22818-0.56384-1.85846
		c-0.13293-0.64166-0.19983-1.2941-0.19983-1.94653c0-0.65298,0.06689-1.30542,0.19983-1.94705
		c0.12097-0.63028,0.30896-1.26114,0.56384-1.85794c0.25378-0.59735,0.5531-1.1839,0.91821-1.72562
		c0.35315-0.54224,0.77332-1.05103,1.23889-1.5047c0.45264-0.46448,0.96143-0.87387,1.50366-1.23846
		c0.54224-0.36508,1.11694-0.66376,1.7262-0.91815c0.59729-0.24359,1.22705-0.44235,1.85791-0.56439
		c1.28333-0.2652,2.61084-0.2652,3.89307,0c0.63086,0.12204,1.2616,0.3208,1.85901,0.56439
		c0.60815,0.25439,1.18274,0.55307,1.7251,0.91815c0.54224,0.36459,1.05103,0.77399,1.5155,1.23846
		c0.45361,0.45367,0.8739,0.96246,1.22815,1.5047c0.36511,0.54172,0.67407,1.12827,0.91821,1.72562
		c0.25378,0.5968,0.44177,1.22766,0.56384,1.85794c0.13281,0.64163,0.19873,1.29407,0.19873,1.94705
		c0,0.65244-0.06592,1.30487-0.19873,1.94653c-0.12207,0.63028-0.31006,1.26111-0.56384,1.85846
		c-0.24414,0.60815-0.5531,1.18335-0.91821,1.72562c-0.35425,0.54172-0.77454,1.05051-1.22815,1.50418
		c-0.46448,0.46448-0.97327,0.88467-1.5155,1.23898c-0.54236,0.36511-1.11694,0.67459-1.7251,0.91818
		c-0.59741,0.25436-1.22815,0.44232-1.85901,0.56384C1823.125,327.20667,1822.47156,327.2731,1821.81909,327.2731z"/>
	<path class="st3" d="M1811.86401,317.31799c0-5.49765,4.45789-9.95508,9.95508-9.95508l0,0
		c5.49707,0,9.95508,4.45743,9.95508,9.95508l0,0c0,5.49713-4.45801,9.95511-9.95508,9.95511l0,0
		C1816.3219,327.2731,1811.86401,322.81512,1811.86401,317.31799z"/>
	<path class="st3" d="M1811.86401,384.79141c0-5.49765,4.45789-9.95508,9.95508-9.95508l0,0
		c5.49707,0,9.95508,4.45743,9.95508,9.95508l0,0c0,5.49713-4.45801,9.95511-9.95508,9.95511l0,0
		C1816.3219,394.74652,1811.86401,390.28854,1811.86401,384.79141z M1811.86401,351.05472
		c0-5.49768,4.45789-9.95511,9.95508-9.95511l0,0c5.49707,0,9.95508,4.45743,9.95508,9.95511l0,0
		c0,5.49713-4.45801,9.95508-9.95508,9.95508l0,0C1816.3219,361.0098,1811.86401,356.55185,1811.86401,351.05472z"/>
	<path class="st3" d="M1821.81909,428.48325c-0.65247,0-1.30493-0.06644-1.94653-0.19931
		c-0.63086-0.12152-1.26062-0.30948-1.85791-0.56387c-0.60925-0.24356-1.18396-0.55304-1.7262-0.91815
		c-0.54224-0.35431-1.05103-0.77451-1.50366-1.23898c-0.46558-0.4537-0.88574-0.96246-1.23889-1.50418
		c-0.36511-0.54227-0.66443-1.11746-0.91821-1.72562c-0.25488-0.59735-0.44287-1.22818-0.56384-1.85849
		c-0.13293-0.64163-0.19983-1.29407-0.19983-1.9465c0-2.62164,1.06177-5.18765,2.92078-7.03531
		c0.45264-0.46451,0.96143-0.8847,1.50366-1.23846c0.54224-0.36511,1.11694-0.67511,1.7262-0.91815
		c0.59729-0.25439,1.22705-0.44235,1.85791-0.56442c1.28333-0.26517,2.61084-0.26517,3.89307,0
		c0.63086,0.12207,1.2616,0.31003,1.85901,0.56442c0.60815,0.24304,1.18274,0.55304,1.7251,0.91815
		c0.54224,0.35376,1.05103,0.77396,1.5155,1.23846c1.84717,1.84766,2.90894,4.41367,2.90894,7.03531
		c0,0.65244-0.06592,1.30487-0.19873,1.9465c-0.12207,0.63031-0.31006,1.26114-0.56384,1.85849
		c-0.24414,0.60815-0.5531,1.18335-0.91821,1.72562c-0.35425,0.54172-0.77454,1.05048-1.22815,1.50418
		c-0.46448,0.46448-0.97327,0.88467-1.5155,1.23898c-0.54236,0.36511-1.11694,0.67459-1.7251,0.91815
		c-0.59741,0.25439-1.22815,0.44235-1.85901,0.56387C1823.125,428.41681,1822.47156,428.48325,1821.81909,428.48325z"/>
</g>
<g>
	<path class="st4" d="M1476.82068,417.88776h-250.22021c-19.37622,0-35.08374-15.70755-35.08374-35.0838V251.83394
		c0-19.37624,15.70752-35.08379,35.08374-35.08379h250.22021c19.37622,0,35.08374,15.70755,35.08374,35.08379v130.97002
		C1511.90442,402.18021,1496.1969,417.88776,1476.82068,417.88776z"/>
	<path class="st5" d="M1476.82068,216.75012h-250.22021c-19.37622,0-35.08374,15.70758-35.08374,35.08382v21.38972h320.3877
		v-21.38972C1511.90442,232.4577,1496.1969,216.75012,1476.82068,216.75012z"/>
	<path class="st6" d="M1492.95068,356.76392h-33.78015c-2.38306-0.00003-4.31494,1.93185-4.31494,4.31491v33.78024
		c0,2.48267,3.1322,3.57196,4.67273,1.62506l7.6001-9.60522l14.25366,14.25357c1.50818,1.50827,3.95361,1.50827,5.46179,0
		l12.38025-12.38022c1.5083-1.50824,1.5083-3.95361,0-5.46185l-14.25354-14.25357l9.60522-7.60019
		C1496.52271,359.89615,1495.43335,356.76392,1492.95068,356.76392z"/>
	<g>
		<g>
			<path class="st1" d="M1287.51746,341.18466h-17.52795l-3.56714,10.45517h-7.56458l16.45178-44.7735h7.07263l16.26746,44.7735
				h-7.59583L1287.51746,341.18466z M1272.14185,334.94202h13.25415l-6.48877-19.12717h-0.18433L1272.14185,334.94202z"/>
			<path class="st1" d="M1311.31885,334.66501v16.97482h-7.47229v-44.7735h17.49744c4.94006,0,8.80981,1.27618,11.60828,3.82855
				c2.79846,2.5524,4.19775,5.9093,4.19775,10.0708c0,4.20309-1.39929,7.57031-4.19775,10.10165
				c-2.79846,2.53223-6.66821,3.79767-11.60828,3.79767H1311.31885z M1311.31885,328.66891h10.02515
				c2.76758,0,4.8479-0.73834,6.24219-2.21408c1.39392-1.47623,2.09106-3.35202,2.09106-5.62741
				c0-2.27582-0.69714-4.17175-2.09106-5.68915c-1.39429-1.51691-3.47461-2.27539-6.24219-2.27539h-10.02515V328.66891z"/>
			<path class="st1" d="M1352.00244,334.66501v16.97482h-7.47229v-44.7735h17.49744c4.94006,0,8.80981,1.27618,11.60828,3.82855
				c2.79858,2.5524,4.19775,5.9093,4.19775,10.0708c0,4.20309-1.39917,7.57031-4.19775,10.10165
				c-2.79846,2.53223-6.66821,3.79767-11.60828,3.79767H1352.00244z M1352.00244,328.66891h10.02515
				c2.76758,0,4.8479-0.73834,6.24219-2.21408c1.39392-1.47623,2.09106-3.35202,2.09106-5.62741
				c0-2.27582-0.69714-4.17175-2.09106-5.68915c-1.39429-1.51691-3.47461-2.27539-6.24219-2.27539h-10.02515V328.66891z"/>
			<path class="st1" d="M1392.68604,345.64328h20.57336v5.99655h-28.04565v-44.7735h7.47229V345.64328z"/>
			<path class="st1" d="M1425.4978,328.63803l10.82434-21.7717h8.33362l-15.52991,29.05966v15.71384h-7.44141V335.5264
				l-15.28296-28.66006h8.33374L1425.4978,328.63803z"/>
		</g>
	</g>
</g>
<path class="st3" d="M906.87567,184.0322c-73.49506,0-133.28711,59.79201-133.28711,133.28674
	s59.79205,133.28671,133.28711,133.28671c73.49438,0,133.28644-59.79199,133.28644-133.28671S980.37006,184.0322,906.87567,184.0322
	z M1006.86121,311.09512c-0.38489-11.25018-1.81323-22.25101-4.22009-32.80173c13.8476,9.61606,22.30383,20.9238,24.49878,32.80173
	H1006.86121z M861.80084,311.09512h-42.4574c0.54468-14.73178,3.01703-28.77176,7.06696-41.65872
	c11.84094-5.7283,25.38348-10.0697,39.9798-12.87985C863.65533,273.28314,862.08026,291.81769,861.80084,311.09512z
	 M879.36627,254.49626c8.91449-1.12138,18.12744-1.69933,27.5094-1.69933s18.59491,0.57794,27.5094,1.69933
	c3.05432,17.07735,4.81726,36.38002,5.11743,56.59886h-65.25372C874.54901,290.87628,876.31195,271.57361,879.36627,254.49626z
	 M861.80084,323.54272c0.27942,19.27737,1.85449,37.81198,4.58936,54.53864c-14.59631-2.81021-28.13885-7.15155-39.9798-12.87991
	c-4.04993-12.88696-6.52228-26.92694-7.06696-41.65872H861.80084z M874.24878,323.54272h65.25372
	c-0.30017,20.21884-2.06311,39.52148-5.11743,56.59888c-8.91449,1.12137-18.12744,1.69934-27.5094,1.69934
	s-18.59491-0.57797-27.5094-1.69934C876.31195,363.06418,874.54901,343.76157,874.24878,323.54272z M951.9505,323.54272h42.4574
	c-0.54468,14.73166-3.01685,28.77151-7.06677,41.65836c-11.841,5.72849-25.38348,10.06995-39.97998,12.88019
	C950.09601,361.35468,951.67108,342.8201,951.9505,323.54272z M951.9505,311.09512
	c-0.27942-19.27744-1.85449-37.81192-4.58936-54.53851c14.5965,2.81024,28.13898,7.1517,39.97998,12.88019
	c4.04993,12.88681,6.52209,26.92667,7.06677,41.65833H951.9505z M944.90326,243.47093
	c-1.34589-6.30087-2.87183-12.26659-4.57196-17.82109c-3.10345-10.13733-6.65564-18.49225-10.59113-24.99049
	c21.53583,8.03128,39.80743,27.11911,51.40027,52.55708C969.97107,248.9214,957.77075,245.64172,944.90326,243.47093z
	 M928.42871,229.29356c1.19781,3.91304,2.30353,8.04929,3.31818,12.37285c-8.11804-0.86859-16.43536-1.31709-24.87122-1.31709
	c-8.43567,0-16.75317,0.44846-24.87128,1.31706c1.01471-4.32358,2.12036-8.45982,3.31824-12.37282
	c7.41443-24.21989,16.24432-32.81377,21.55304-32.81377S921.01428,205.07367,928.42871,229.29356z M884.01117,200.65935
	c-3.93549,6.49825-7.48767,14.85316-10.59113,24.99049c-1.70013,5.55447-3.22589,11.52022-4.57196,17.82104
	c-12.86749,2.17075-25.06781,5.45035-36.23712,9.7453C844.20392,227.77838,862.47552,208.69058,884.01117,200.65935z
	 M806.89008,311.09512h-20.27936c2.19519-11.87814,10.65161-23.1861,24.49963-32.80228
	C808.70343,288.84372,807.27502,299.84476,806.89008,311.09512z M806.89008,323.54272
	c0.38495,11.25037,1.81329,22.2514,4.22021,32.80228c-13.84796-9.61621-22.30438-20.92429-24.49957-32.80228H806.89008z
	 M868.84808,391.16696c1.34607,6.30075,2.87183,12.26639,4.57196,17.82074c3.10345,10.13748,6.65564,18.49249,10.59113,24.99081
	c-21.53583-8.03125-39.80725-27.11911-51.40027-52.55704C843.78027,385.71649,855.98059,388.99619,868.84808,391.16696z
	 M885.32263,405.3443c-1.19788-3.91306-2.30353-8.04929-3.31824-12.3728c8.1181,0.86853,16.43561,1.31705,24.87128,1.31705
	s16.75317-0.44852,24.87122-1.31711c-1.01465,4.32352-2.12036,8.45981-3.31818,12.37286
	c-7.41443,24.21991-16.24432,32.81375-21.55304,32.81375S892.73706,429.56421,885.32263,405.3443z M929.74017,433.97852
	c3.93549-6.49832,7.48767-14.85333,10.59113-24.99081c1.70013-5.55441,3.22589-11.52002,4.57196-17.8208
	c12.86749-2.17084,25.06793-5.45062,36.23737-9.74573C969.54761,406.85928,951.276,425.94724,929.74017,433.97852z
	 M1006.86121,323.54272h20.27869c-2.19507,11.87772-10.65118,23.18564-24.49878,32.80173
	C1005.04797,345.79376,1006.47632,334.79291,1006.86121,323.54272z M1020.77972,276.97382
	c-5.79767-5.4769-12.83356-10.55426-21.02985-15.11774c-0.72156-0.40176-1.4516-0.79703-2.18671-1.18835
	c-4.7533-13.50893-11.23895-25.97629-19.30487-36.89429c-2.27399-3.07805-4.64288-5.98541-7.09381-8.72678
	C993.9527,229.42276,1011.62244,251.19734,1020.77972,276.97382z M842.5871,215.04642
	c-2.45111,2.74139-4.82007,5.6489-7.09406,8.72702c-8.06586,10.91788-14.55151,23.38507-19.30481,36.89383
	c-0.73535,0.39142-1.46552,0.78687-2.18744,1.18881c-8.19617,4.56348-15.23199,9.64081-21.02966,15.11761
	C802.12854,251.19713,819.79865,229.4225,842.5871,215.04642z M792.97095,357.66379
	c5.79767,5.47687,12.83356,10.55414,21.02985,15.11765c0.7218,0.40192,1.45209,0.79733,2.18738,1.18878
	c4.7533,13.50885,11.23895,25.97607,19.30487,36.89386c2.27417,3.0784,4.64319,5.98608,7.09448,8.72772
	C819.79871,405.21567,802.12836,383.44073,792.97095,357.66379z M971.164,419.59152c2.45129-2.74152,4.82013-5.64914,7.0943-8.72745
	c8.06592-10.91791,14.55176-23.38531,19.30505-36.89432c0.73492-0.39127,1.46497-0.78656,2.18652-1.18832
	c8.19629-4.56351,15.2323-9.64087,21.02997-15.11777C1011.62262,383.44052,993.95251,405.21536,971.164,419.59152z"/>
<g>
	<path class="st7" d="M1845.44482,801.72253L1845.44482,801.72253c23.63257,0,42.79053,19.15796,42.79053,42.79053v65.67621
		h-85.58118v-65.67621C1802.65417,820.88049,1821.81226,801.72253,1845.44482,801.72253z"/>
	<path class="st8" d="M1845.44495,801.72253h-0.00024c-0.99768,0-1.98401,0.04645-2.9646,0.11365
		c19.17249,1.4173,34.29053,17.40991,34.29053,36.9444v71.40869h11.46472V844.513
		C1888.23535,820.88049,1869.07739,801.72253,1845.44495,801.72253z"/>
	<polygon class="st9" points="1878.29456,955.10352 1812.59509,955.10352 1800.88623,903.99353 1890.0033,903.99353 	"/>
	<polygon class="st10" points="1876.25769,903.99353 1864.54895,955.10352 1878.29456,955.10352 1890.0033,903.99353 	"/>
	<path class="st2" d="M1887.40527,881.94226h-83.92102c-9.02625,0-16.34351,7.3172-16.34351,16.34344v0.00006
		c0,9.02631,7.31726,16.34357,16.34351,16.34357h83.92102c9.02625,0,16.34363-7.31726,16.34363-16.34357v-0.00006
		C1903.7489,889.25946,1896.43152,881.94226,1887.40527,881.94226z"/>
	<path class="st9" d="M1887.40527,881.94226h-13.74548c9.02625,0,16.34351,7.3172,16.34351,16.34344v0.00006
		c0,9.02631-7.31726,16.34357-16.34351,16.34357h13.74548c9.02625,0,16.34363-7.31726,16.34363-16.34357v-0.00006
		C1903.7489,889.25946,1896.43152,881.94226,1887.40527,881.94226z"/>
	<path class="st11" d="M1821.82031,829.56439c-1.77222,4.6474-3.20886,6.08411-7.8562,7.85626
		c4.64734,1.77228,6.08398,3.20892,7.8562,7.85632c1.77222-4.6474,3.20898-6.08405,7.85632-7.85632
		C1825.0293,835.6485,1823.59253,834.21179,1821.82031,829.56439z"/>
	<path class="st11" d="M1859.56177,816.47113c-1.77222,4.6474-3.20886,6.08411-7.8562,7.85632
		c4.64734,1.77228,6.08398,3.20892,7.8562,7.85632c1.77222-4.6474,3.20898-6.08405,7.85632-7.85632
		C1862.77075,822.55524,1861.33398,821.11853,1859.56177,816.47113z"/>
	<path class="st11" d="M1873.21387,857.24719c-1.77209,4.6474-3.20874,6.08411-7.8562,7.85632
		c4.64746,1.77222,6.08411,3.20892,7.8562,7.85632c1.77234-4.6474,3.20898-6.08411,7.85645-7.85632
		C1876.42285,863.3313,1874.98621,861.89459,1873.21387,857.24719z"/>
	<path class="st11" d="M1843.84912,845.27698c-1.77222,4.6474-3.20886,6.08411-7.8562,7.85632
		c4.64734,1.77222,6.08398,3.20892,7.8562,7.85626c1.77234-4.64734,3.20898-6.08405,7.85645-7.85626
		C1847.05811,851.36108,1845.62146,849.92438,1843.84912,845.27698z"/>
	<path class="st11" d="M1819.15906,862.32806c-1.77222,4.6474-3.20886,6.08411-7.8562,7.85632
		c4.64734,1.77222,6.08398,3.20886,7.8562,7.85626c1.77234-4.6474,3.20898-6.08405,7.85632-7.85626
		C1822.36804,868.41217,1820.9314,866.97546,1819.15906,862.32806z"/>
</g>
<g>
	<g>
		<path class="st12" d="M1559.35693,954.44409h-47.45251v-16.06006h41.50623l-20.48547-131.34747h14.27563l21.32495,136.69757
			C1569.40356,949.36133,1565.05225,954.44409,1559.35693,954.44409z"/>
		<polygon class="st5" points="1553.41064,938.38403 1511.90442,938.38403 1511.90442,954.44409 1486.33923,954.44409 
			1463.33167,807.03656 1532.92517,807.03656 		"/>
		<path class="st5" d="M1443.00989,954.44409h71.97974c4.43481,0,8.03003-3.59515,8.03003-8.03003l0,0
			c0-4.43488-3.59521-8.03003-8.03003-8.03003h-71.97974c-4.43481,0-8.03003,3.59515-8.03003,8.03003l0,0
			C1434.97986,950.84894,1438.57507,954.44409,1443.00989,954.44409z"/>
	</g>
	<rect x="1243.61694" y="485.1889" class="st13" width="515.32849" height="357.53983"/>
	<rect x="1221.01392" y="485.1889" class="st5" width="508.33136" height="357.53983"/>
	<rect x="1221.01392" y="485.1889" class="st14" width="508.33136" height="310.08145"/>
	<rect x="1249.56519" y="513.74005" class="st5" width="451.22894" height="252.97896"/>
</g>
<g>
	<g>
		<path class="st15" d="M802.2168,980.16138v0.00006c0,14.20331,11.51404,25.71735,25.71735,25.71735h1093.19434
			c14.20325,0,25.71729-11.51404,25.71729-25.71735v-0.00006c0-14.20325-11.51404-25.71729-25.71729-25.71729H827.93414
			C813.73083,954.44409,802.2168,965.95813,802.2168,980.16138z"/>
		<path class="st16" d="M687.70129,980.16138v0.00006c0,14.20331,11.51404,25.71735,25.71729,25.71735h1067.47693
			c14.20337,0,25.71741-11.51404,25.71741-25.71735v-0.00006c0-14.20325-11.51404-25.71729-25.71741-25.71729H713.41858
			C699.21533,954.44409,687.70129,965.95813,687.70129,980.16138z"/>
	</g>
	<g>
		<g>
			<rect x="737.86774" y="1005.87878" class="st2" width="37.05339" height="508.81598"/>
			<rect x="889.72156" y="1005.87878" class="st2" width="37.05339" height="508.81598"/>
			<rect x="760.7276" y="1432.10437" class="st2" width="147.52071" height="25.07209"/>
		</g>
		<g>
			<rect x="1707.77197" y="1005.87878" class="st2" width="37.05339" height="508.81598"/>
			<rect x="1859.62585" y="1005.87878" class="st2" width="37.05339" height="508.81598"/>
			<rect x="1730.63184" y="1432.10437" class="st2" width="147.52071" height="25.07209"/>
		</g>
	</g>
</g>
<g>
	<g>
		<rect x="1017.59167" y="1526.20886" class="st17" width="181.52109" height="25.35665"/>
		<path class="st17" d="M1017.59167,1526.20886v-48.02246c0-5.23596,4.24463-9.48059,9.48059-9.48059h133.76135
			c21.14099,0,38.27917,17.13818,38.27917,38.27917v19.22388H1017.59167z"/>
	</g>
	<path class="st17" d="M1071.57312,1533.51282c-6.34351,0-12.79163-1.1687-19.0509-3.63586
		c-26.71167-10.52869-39.83008-40.71912-29.30084-67.4303l105.06854-266.55261l-94.87146-9.57373
		c-28.56696-2.88306-49.38776-28.37793-46.50525-56.94482c2.88361-28.56689,28.36926-49.39734,56.94531-46.50574l163.20264,16.46985
		c16.19971,1.63538,30.69812,10.76526,39.17224,24.66846c8.47363,13.9032,9.94434,30.97351,3.97351,46.12109L1119.953,1500.57544
		C1111.89099,1521.02905,1092.30103,1533.51172,1071.57312,1533.51282z"/>
</g>
<g>
	<path class="st17" d="M1150.95947,965.50531h-125.7019c-14.11011,0-27.54126-6.0556-36.88501-16.62854
		c-9.34314-10.573-13.69958-24.64795-11.96313-38.65051l20.25153-163.33716c3.34479-26.97736,27.92303-46.13464,54.90472-42.79199
		c26.97803,3.3454,46.13684,27.92688,42.7915,54.90533l-13.39771,108.05804h70c27.18481,0,49.22241,22.03766,49.22241,49.22241
		C1200.18188,943.46716,1178.14429,965.50531,1150.95947,965.50531z"/>
	<path class="st18" d="M1278.59131,1523.55347c-3.13806,0-6.3197-0.28625-9.51599-0.8772
		c-28.23315-5.22266-46.8866-32.34424-41.66321-60.57739l47.92346-259.04639h-250.89526
		c-28.71216,0-51.98767-23.276-51.98767-51.98767s23.27551-51.98779,51.98767-51.98779h313.38306
		c15.44348,0,30.08777,6.86572,39.96509,18.73828c9.87683,11.87244,13.96484,27.52124,11.15515,42.70667l-59.29089,320.49121
		C1325.02087,1506.04993,1303.16846,1523.55237,1278.59131,1523.55347z"/>
	<path class="st5" d="M1465.19031,954.44409h-96.78577c-7.17798,0-12.99683-5.81891-12.99683-12.99689v-0.00006
		c0-19.70129,15.97107-35.67242,35.67236-35.67242h51.43469c19.70129,0,35.67236,15.97113,35.67236,35.67242v0.00006
		C1478.18713,948.62518,1472.36829,954.44409,1465.19031,954.44409z"/>
	<path class="st12" d="M1475.45215,927.73492c-5.37451-12.89435-18.09558-21.96021-32.93738-21.96021h-51.43469
		c-19.70129,0-35.67236,15.97107-35.67236,35.67242c0,7.1781,5.81885,12.99695,12.99695,12.99695h35.66882
		C1421.02014,935.21613,1455.7417,926.09308,1475.45215,927.73492z"/>
	<path class="st19" d="M1375.31799,950.01959h-105.63452c-18.63232,0-33.73682-15.10437-33.73682-33.73669
		s15.10449-33.73669,33.73682-33.73669h105.63452c18.63232,0,33.73621,15.10437,33.73621,33.73669
		S1393.95032,950.01959,1375.31799,950.01959z"/>
	
		<ellipse transform="matrix(0.89241 -0.45123 0.45123 0.89241 -258.59628 727.01709)" class="st19" cx="1395.22803" cy="905.77472" rx="60.83669" ry="40.64997"/>
	<g>
		<path class="st14" d="M1117.4967,469.0531c-4.47925-10.62354-4.95386-21.92645-2.13062-32.24652
			c0.2832,0.77719,0.58582,1.55167,0.91077,2.32239c10.61768,25.18222,39.63916,36.98917,64.82141,26.37149
			c14.55859-6.13837,24.63318-18.43204,28.5022-32.57483c8.97034,24.61917-2.87073,52.2063-27.28235,62.49899
			C1157.13586,506.04227,1128.11438,494.23535,1117.4967,469.0531z"/>
		<path class="st19" d="M951.2323,708.74585h128.35974c39.41516,0,71.36743-31.95227,71.36743-71.36737V464.24783H951.2323
			V708.74585z"/>
		<circle class="st14" cx="1126.745" cy="434.00275" r="66.61581"/>
		<circle class="st14" cx="1029.9541" cy="436.51035" r="55.82191"/>
		<path class="st14" d="M973.47437,700.31525h29.77051c23.34192,0,42.2644-18.92236,42.2644-42.26434V418.52814h-68.57959
			c-38.68994,0-70.05438,31.36441-70.05438,70.05438v145.13367C906.87531,670.49786,936.69275,700.31525,973.47437,700.31525z"/>
		<circle class="st14" cx="1078.23206" cy="510.05972" r="59.45404"/>
		<circle class="st19" cx="1052.69897" cy="593.47968" r="36.31769"/>
		<path class="st14" d="M1086.62012,603.98785L1086.62012,603.98785c-8.6543,0-15.67004-7.01569-15.67004-15.67004v-53.2782
			h31.34009v53.2782C1102.29016,596.97217,1095.27441,603.98785,1086.62012,603.98785z"/>
		<path class="st14" d="M1097.69153,464.30771c-13.05103,5.96616-23.00342,15.92694-29.10535,27.76382
			c0.91406-0.47397,1.84351-0.92905,2.79041-1.36188c30.93628-14.14227,67.47974-0.52798,81.62207,30.40839
			c8.17603,17.88525,7.05908,37.63684-1.3031,53.85822c28.95227-15.01318,41.32751-50.27057,27.61804-80.26013
			C1165.17126,463.77972,1128.62781,450.16544,1097.69153,464.30771z"/>
	</g>
	<path class="st20" d="M992.78357,1199.38953c-36.39343,0-71.34161-20.3833-88.22565-55.35352
		c-31.60437-65.46106-45.17438-141.24554-40.3324-225.24921c4.39966-76.32941,23.26422-143.55762,38.31458-186.51489
		c17.87622-51.02313,73.73047-77.89197,124.7536-60.01685c51.02368,17.87671,77.89404,73.73102,60.01733,124.75409
		c-13.10925,37.41699-52.31775,166.88562-6.44275,261.90405c23.5061,48.68774,3.09314,107.21057-45.59351,130.7168
		C1021.55786,1196.25269,1007.05945,1199.38953,992.78357,1199.38953z"/>
	<path class="st5" d="M1319.45886,956.65637h-98.44482c-22.29736,0-40.37341-18.07605-40.37341-40.37347
		s18.07605-40.37341,40.37341-40.37341h98.44482c22.29749,0,40.37341,18.07599,40.37341,40.37341
		S1341.75635,956.65637,1319.45886,956.65637z"/>
	<path class="st18" d="M1266.36499,965.50531h-123.88562c-17.3717,0-33.45691-9.1568-42.32532-24.09485l-96.97034-163.33661
		c-13.87787-23.37598-6.17822-53.57562,17.19781-67.45343c23.37384-13.87732,53.57501-6.17871,67.45294,17.19781l82.66577,139.24225
		h95.86475c27.18481,0,49.22253,22.03766,49.22253,49.22241C1315.58752,943.4682,1293.5498,965.50531,1266.36499,965.50531z"/>
	<path class="st19" d="M1463.81702,929.55963c-4.92358,0-9.65381-2.75128-11.94922-7.47717
		c-3.90808-8.04529-11.12708-14.8786-37.26135-10.41309c-7.2146,1.22821-14.08423-3.62402-15.31775-10.85059
		c-1.23413-7.22595,3.62354-14.08411,10.84998-15.31769c12.21277-2.08643,49.37805-8.42987,65.60803,24.98224
		c3.20276,6.5946,0.45361,14.53619-6.13989,17.73901C1467.73914,929.1297,1465.76245,929.55963,1463.81702,929.55963z"/>
	<path class="st19" d="M1402.95752,905.77692c-2.37744,0-4.78467-0.63947-6.95691-1.97894
		c-6.23877-3.84979-8.17554-12.02795-4.32617-18.26666c10.19104-16.51624,21.83557-26.08728,35.59839-29.25928
		c15.47375-3.56519,33.18579,1.15686,54.14807,14.4422c6.19177,3.92438,8.03027,12.12469,4.10583,18.31689
		c-3.92212,6.19061-12.12305,8.03076-18.31689,4.10583c-14.4563-9.16113-25.88367-12.86298-33.97437-10.9964
		c-4.14148,0.95435-10.61401,3.78937-18.96826,17.33069C1411.75793,903.53766,1407.40906,905.77692,1402.95752,905.77692z"/>
	<path class="st19" d="M1383.63123,898.42291c-0.64758,0-1.30212-0.04535-1.96167-0.13879
		c-7.5603-1.07428-12.8186-8.07336-11.745-15.63367c3.35083-23.58777,27.16431-58.9491,61.45837-61.18561
		c7.60681-0.49152,14.20032,5.27728,14.69714,12.89752c0.49695,7.62024-5.27783,14.20032-12.89746,14.6972
		c-17.89136,1.16656-33.85071,23.1972-35.87927,37.47955C1396.323,893.44,1390.40515,898.42291,1383.63123,898.42291z"/>
	<g>
		<rect x="1222.56592" y="1526.20886" class="st14" width="181.52109" height="25.35665"/>
		<path class="st21" d="M1222.56592,1526.20886v-48.02246c0-5.23596,4.24463-9.48059,9.48059-9.48059h133.76135
			c21.14099,0,38.27917,17.13818,38.27917,38.27917v19.22388H1222.56592z"/>
	</g>
</g>
<g>
	<path class="st21" d="M1409.30591,585.85583v65.65515c0,7.73102,6.26721,13.99823,13.99829,13.99823h103.7511
		c7.73096,0,13.99817-6.26721,13.99817-13.99823v-65.65515c0-7.73102-6.26721-13.99823-13.99817-13.99823h-103.7511
		C1415.57312,571.8576,1409.30591,578.12482,1409.30591,585.85583z"/>
	<path class="st14" d="M1404.11877,567.51788v27.82166c0,4.88855,3.19202,9.20404,7.86658,10.63501l60.61438,18.55579
		c1.68152,0.51471,3.47852,0.51471,5.16003,0l60.61438-18.55579c4.67444-1.43097,7.86658-5.74646,7.86658-10.63501v-27.82166
		c0-4.11945-3.33948-7.45892-7.45898-7.45892h-127.20398C1407.45825,560.05896,1404.11877,563.39844,1404.11877,567.51788z"/>
	<rect x="1463.59045" y="604.94904" class="st22" width="23.17846" height="8.48029"/>
	<path class="st14" d="M1490.11243,553.60657h-29.86536c-2.59631,0-4.70105-2.10468-4.70105-4.70099l0,0
		c0-2.59631,2.10474-4.70105,4.70105-4.70105h29.86536c2.59619,0,4.70093,2.10474,4.70093,4.70105l0,0
		C1494.81335,551.50189,1492.70862,553.60657,1490.11243,553.60657z"/>
</g>
<g>
	
		<ellipse transform="matrix(0.70711 -0.70711 0.70711 0.70711 14.02153 1267.36475)" class="st23" cx="1536.85535" cy="616.7569" rx="41.05721" ry="41.05721"/>
	
		<rect x="1565.37097" y="641.16974" transform="matrix(0.70711 -0.70711 0.70711 0.70711 -1.76609 1305.47937)" class="st21" width="19.19807" height="27.40365"/>
	<path class="st14" d="M1608.82874,709.25092l-37.54297-37.54297c-4.31091-4.31091-4.31091-11.30017,0-15.61102l4.90967-4.90967
		c4.31079-4.31085,11.30005-4.31085,15.61096,0l37.54297,37.54303c4.31091,4.31085,4.31091,11.30017,0,15.61102l-4.90967,4.90961
		C1620.12891,713.56177,1613.13965,713.56177,1608.82874,709.25092z"/>
	<path class="st2" d="M1536.85559,662.79144c-12.297,0-23.8573-4.78851-32.55176-13.48303l0,0
		c-17.94861-17.94904-17.94861-47.15436,0-65.10345c17.94849-17.9491,47.15381-17.948,65.10242,0
		c8.69556,8.69507,13.48401,20.25531,13.48401,32.55176c0,12.29639-4.78845,23.85669-13.48401,32.5517
		C1560.71167,658.00293,1549.15149,662.79144,1536.85559,662.79144z M1511.34241,642.2688
		c6.81494,6.81494,15.87561,10.56757,25.51318,10.56757c9.63745,0,18.69714-3.75262,25.51208-10.56757
		c6.81494-6.81445,10.5675-15.87512,10.5675-25.51208s-3.75256-18.69769-10.5675-25.51208
		c-14.06848-14.06793-36.95679-14.0658-51.02527,0C1497.276,605.31201,1497.276,628.20142,1511.34241,642.2688L1511.34241,642.2688z
		"/>
</g>
<path class="st6" d="M1511.40637,728.7868h-72.45325c-8.24243,0-14.92419-6.68176-14.92419-14.92413v-0.00006
	c0-8.24237,6.68176-14.92413,14.92419-14.92413h72.45325c8.24231,0,14.92407,6.68176,14.92407,14.92413v0.00006
	C1526.33044,722.10504,1519.64868,728.7868,1511.40637,728.7868z"/>
<g>
	<g>
		<path class="st6" d="M1051.22437,1256.96838H882.13013c-16.18866,0-29.31219-13.12354-29.31219-29.31213v-0.00012
			c0-16.18872,13.12354-29.31213,29.31219-29.31213h169.09424c16.18872,0,29.31226,13.12341,29.31226,29.31213v0.00012
			C1080.53662,1243.84485,1067.41309,1256.96838,1051.22437,1256.96838z"/>
		<path class="st24" d="M1212.74316,1256.96838h-150.23926c-16.18872,0-29.31226-13.12354-29.31226-29.31213v-0.00012
			c0-16.18872,13.12354-29.31213,29.31226-29.31213h150.23926c16.1886,0,29.31213,13.12341,29.31213,29.31213v0.00012
			C1242.0553,1243.84485,1228.93176,1256.96838,1212.74316,1256.96838z"/>
	</g>
	<g>
		<g>
			<circle class="st14" cx="1106.73682" cy="1533.13013" r="18.43536"/>
			<circle class="st14" cx="988.13635" cy="1533.13013" r="18.43536"/>
		</g>
		<rect x="1029.18567" y="1285.72754" class="st21" width="36.50202" height="228.96719"/>
		<rect x="1023.28632" y="1285.72754" class="st14" width="48.30065" height="54.19996"/>
		<path class="st14" d="M985.43048,1256.96838v11.70068c0,17.36279,14.07526,31.43811,31.43793,31.43811h68.50842
			c17.36267,0,31.43787-14.07532,31.43787-31.43811v-11.70068H985.43048z"/>
		<path class="st14" d="M959.56128,1513.95789v14.01038h175.75073v-14.01038c0-11.20007-9.07947-20.27942-20.27954-20.27942
			H979.84076C968.64069,1493.67847,959.56128,1502.75781,959.56128,1513.95789z"/>
	</g>
	<g>
		<path class="st24" d="M975.48535,831.91632H858.85992c-17.16858,0-31.08643,13.91785-31.08643,31.08643v215.32904
			c0,17.16858,13.91785,31.0863,31.08643,31.0863h116.62543c17.16864,0,31.08636-13.91772,31.08636-31.0863V863.00275
			C1006.57172,845.83417,992.65399,831.91632,975.48535,831.91632z"/>
		<path class="st6" d="M940.52637,831.91632H823.90088c-17.16852,0-31.08643,13.91785-31.08643,31.08643v215.32904
			c0,17.16858,13.91791,31.0863,31.08643,31.0863h116.62549c17.16858,0,31.08636-13.91772,31.08636-31.0863V863.00275
			C971.61273,845.83417,957.69495,831.91632,940.52637,831.91632z"/>
	</g>
	<path class="st14" d="M1033.84509,1297.3418h-92.10675c-44.83575,0-81.31238-36.47717-81.31238-81.31287V929.0033
		c0-10.9964,8.91431-19.91016,19.91016-19.91016c10.99591,0,19.91022,8.91376,19.91022,19.91016v287.02563
		c0,22.87854,18.6134,41.49255,41.492,41.49255h92.10675c10.99585,0,19.91016,8.9137,19.91016,19.91016
		S1044.84094,1297.3418,1033.84509,1297.3418z"/>
</g>
<g>
	<path class="st5" d="M2059.35376,434.79514v65.15051c0,20.61813-16.71362,37.33163-37.33154,37.33163h-442.27185
		c-20.61816,0-37.33154-16.7135-37.33154-37.33163v-65.15051c0-20.61813,16.71338-37.3316,37.33154-37.3316h442.27185
		C2042.64014,397.46353,2059.35376,414.177,2059.35376,434.79514z"/>
	<path class="st2" d="M1687.4093,397.46353v139.81375h-107.65894c-20.61816,0-37.33154-16.7135-37.33154-37.33163v-65.15051
		c0-20.61813,16.71338-37.3316,37.33154-37.3316H1687.4093z"/>
	<path class="st5" d="M1659.1781,498.2002l-24.56555-24.56561c-1.77148-1.77158-4.23413-2.42899-6.5199-1.97525l-4.16467-4.16461
		c7.57043-11.66858,6.24927-27.46713-3.97205-37.68875c-11.74426-11.74429-30.85425-11.74429-42.59851,0
		c-5.68982,5.68945-8.82312,13.25369-8.82312,21.29962s3.1333,15.6102,8.82312,21.29962
		c5.68909,5.68912,13.2533,8.82239,21.29883,8.82239c5.90918,0,11.55505-1.69586,16.39246-4.84689l4.16125,4.16122
		c-0.45361,2.28583,0.20374,4.74838,1.97534,6.51996l24.56555,24.56561c2.82068,2.82074,7.39404,2.82074,10.21472,0l3.21252-3.21252
		C1661.9989,505.59424,1661.9989,501.02094,1659.1781,498.2002z M1581.96289,467.79895
		c-4.45923-4.45889-6.91467-10.38757-6.91467-16.69336s2.45544-12.23447,6.91467-16.69336
		c4.60278-4.60309,10.64734-6.90338,16.69336-6.90338c6.04468,0,12.09216,2.3017,16.69409,6.90338
		c9.2041,9.20474,9.2041,24.18198,0,33.38672c-4.45923,4.45926-10.38794,6.9147-16.69409,6.9147
		C1592.35022,474.71365,1586.42224,472.25821,1581.96289,467.79895z"/>
	<g>
		<path class="st21" d="M1736.84265,441.43875h5.97375v31.92929c0,3.94177-1.24841,7.07004-3.74438,9.38437
			c-2.49695,2.31476-5.73657,3.47192-9.71912,3.47192c-4.24463,0-7.62036-1.08109-10.12708-3.24463
			c-2.50684-2.16263-3.70959-5.29581-3.60852-9.39957l0.06091-0.18213h5.7312c0,2.72913,0.69177,4.76602,2.07629,6.11023
			c1.3844,1.34421,3.34082,2.0163,5.86719,2.0163c2.20337,0,4.00305-0.74191,5.39746-2.22705
			c1.39514-1.48471,2.09229-3.46924,2.09229-5.95361V441.43875z"/>
		<path class="st21" d="M1750.82166,468.88034c0-4.85147,1.31384-8.84918,3.94141-11.99265
			c2.62756-3.14304,6.19568-4.71503,10.70349-4.71503c4.5481,0,8.14124,1.56705,10.77954,4.6998
			c2.63831,3.13364,3.9574,7.13626,3.9574,12.00787v0.66675c0,4.89264-1.31458,8.89484-3.94214,12.00787
			c-2.62854,3.11307-6.20642,4.66937-10.73401,4.66937c-4.52832,0-8.11084-1.56168-10.74915-4.68457
			c-2.63831-3.12335-3.95654-7.12061-3.95654-11.99268V468.88034z M1756.79456,469.53143c0,3.47281,0.73291,6.34021,2.19885,8.60129
			c1.46497,2.26105,3.64331,3.39182,6.53394,3.39182c2.85046,0,5.01355-1.13077,6.48926-3.39182
			c1.47485-2.26108,2.21313-5.12848,2.21313-8.60129v-0.66586c0-3.4321-0.7428-6.28918-2.22839-8.57083
			c-1.4856-2.28122-3.66479-3.42227-6.53479-3.42227c-2.85046,0-5.00818,1.14105-6.47314,3.42227
			c-1.46594,2.28165-2.19885,5.13873-2.19885,8.57083V469.53143z"/>
		<path class="st21" d="M1815.52869,470.42682c0,4.73019-1.13745,8.54581-3.4115,11.44629
			c-2.27405,2.90097-5.40283,4.35123-9.3844,4.35123c-2.16394,0-4.04333-0.41974-5.63989-1.2583
			c-1.59753-0.83856-2.922-2.07715-3.97266-3.71445l-0.72754,4.336h-4.88196v-47.30215h5.97375v18.37494
			c1.03101-1.45517,2.30896-2.56668,3.83569-3.33545c1.52588-0.76785,3.30945-1.15225,5.35181-1.15225
			c4.04236,0,7.19617,1.61761,9.46033,4.8515c2.26331,3.23477,3.39636,7.48975,3.39636,12.76544V470.42682z M1809.55493,469.78961
			c0-3.75964-0.69263-6.82706-2.07715-9.2027c-1.38452-2.37473-3.49207-3.56274-6.3219-3.56274
			c-1.83997,0-3.39185,0.45013-4.65454,1.34958c-1.26367,0.89941-2.26965,2.10712-3.01685,3.62317v14.22107
			c0.76782,1.61761,1.7738,2.8808,3.01685,3.79053c1.24304,0.9097,2.81458,1.36432,4.71448,1.36432
			c2.81018,0,4.90259-1.00052,6.27722-3.00208c1.37463-2.0011,2.06189-4.64923,2.06189-7.94394V469.78961z"/>
		<path class="st21" d="M1863.40723,474.47015c0-2.00912-0.75806-3.69208-2.27405-5.0488
			c-1.51697-1.35675-4.20544-2.49689-8.06616-3.42181c-4.6698-1.1142-8.31311-2.75552-10.93079-4.92398
			c-2.61865-2.168-3.927-4.89355-3.927-8.17664c0-3.44418,1.4104-6.32141,4.23035-8.63171s6.47314-3.46521,10.9613-3.46521
			c4.83081,0,8.67639,1.32407,11.5376,3.9722c2.86023,2.64859,4.23926,5.72092,4.13904,9.2179l-0.06079,0.18213h-5.70081
			c0-2.58774-0.85376-4.67966-2.56226-6.27667c-1.7085-1.59705-4.15967-2.39578-7.35278-2.39578
			c-2.97217,0-5.25159,0.67258-6.8374,2.01675c-1.58765,1.34421-2.38049,3.09784-2.38049,5.26047
			c0,1.92102,0.85913,3.52295,2.57739,4.8063c1.71741,1.28378,4.50696,2.41052,8.36853,3.38065
			c4.64929,1.15222,8.18701,2.85037,10.61316,5.09445c2.42529,2.24362,3.63794,5.02332,3.63794,8.33817
			c0,3.55829-1.4552,6.41852-4.36646,8.58115c-2.91028,2.16354-6.71118,3.24463-11.40063,3.24463
			c-4.40674,0-8.30322-1.19788-11.68884-3.5932c-3.38647-2.39532-5.02869-5.59427-4.92749-9.59692l0.06079-0.18167h5.69995
			c0,2.83026,1.04077,4.98306,3.12329,6.45837c2.08167,1.47574,4.65906,2.21362,7.7323,2.21362
			c3.01147,0,5.39746-0.63318,7.15601-1.89908C1862.52747,478.35959,1863.40723,476.6413,1863.40723,474.47015z"/>
		<path class="st21" d="M1890.57495,486.22433c-4.56873,0-8.20215-1.52097-10.90137-4.56332
			c-2.69824-3.04236-4.04773-6.9895-4.04773-11.84097v-1.33392c0-4.6698,1.38977-8.55563,4.16956-11.65884
			c2.77869-3.10275,6.06946-4.6546,9.86938-4.6546c4.42725,0,7.77258,1.33438,10.03674,4.00266
			c2.26416,2.66824,3.39636,6.22653,3.39636,10.67307v3.72968h-21.28625l-0.09131,0.15125
			c0.06091,3.14481,0.85913,5.73032,2.39575,7.75644c1.53577,2.02573,3.68896,3.03879,6.45886,3.03879
			c2.02075,0,3.79456-0.28818,5.32129-0.86407c1.52588-0.57632,2.84497-1.36926,3.9574-2.38052l2.33411,3.88538
			c-1.17249,1.15985-2.71887,2.12595-4.63855,2.89917C1895.62781,485.83771,1893.30359,486.22433,1890.57495,486.22433z
			 M1889.66479,456.87247c-2.0011,0-3.70959,0.84171-5.12451,2.52374c-1.41479,1.68204-2.28381,3.7923-2.60693,6.33081
			l0.05994,0.15125h15.13086v-0.78531c0-2.33713-0.62646-4.29169-1.87939-5.86322
			C1893.99097,457.65866,1892.13123,456.87247,1889.66479,456.87247z"/>
		<path class="st21" d="M1929.96313,485.58759c-0.20227-0.99026-0.35889-1.86462-0.46985-2.62265
			c-0.11096-0.75845-0.17725-1.52094-0.1969-2.2897c-1.11243,1.5769-2.56226,2.89603-4.3512,3.957
			c-1.78906,1.0614-3.71497,1.5921-5.77686,1.5921c-3.41602,0-6.01855-0.87393-7.8075-2.62265
			c-1.78894-1.74826-2.68396-4.15924-2.68396-7.23203c0-3.13318,1.26904-5.58398,3.80627-7.35284
			c2.53625-1.76883,5.97815-2.65347,10.32397-2.65347h6.48926v-3.24417c0-1.92056-0.58704-3.4415-1.75854-4.56375
			c-1.17334-1.12183-2.83069-1.68295-4.97327-1.68295c-1.92053,0-3.48218,0.49042-4.68494,1.47083
			c-1.20288,0.98087-1.80334,2.15817-1.80334,3.53235h-5.70081l-0.06079-0.18167c-0.12085-2.38501,1.005-4.56824,3.3811-6.54962
			c2.37512-1.98096,5.44299-2.97168,9.20264-2.97168c3.71936,0,6.71118,0.94553,8.97534,2.83517
			c2.26331,1.89056,3.39539,4.61435,3.39539,8.17172v15.79797c0,1.17236,0.06091,2.30447,0.18262,3.39584
			c0.12085,1.09183,0.34363,2.16354,0.66675,3.2142H1929.96313z M1920.0481,481.19073c2.16296,0,4.11316-0.55399,5.85193-1.66281
			c1.73804-1.10883,2.87012-2.3783,3.39636-3.81021v-5.32132h-6.70129c-2.40564,0-4.33154,0.60498-5.776,1.81403
			c-1.44617,1.20953-2.16846,2.63071-2.16846,4.26352c0,1.4516,0.45459,2.60071,1.36475,3.44733
			C1916.92468,480.76785,1918.26892,481.19073,1920.0481,481.19073z"/>
		<path class="st21" d="M1959.46667,458.05515l-3.0625-0.18167c-1.57605,0-2.90588,0.37408-3.98694,1.1218
			c-1.08203,0.74817-1.91516,1.79929-2.50134,3.15332v23.439h-5.97375v-32.80859h5.33655l0.57629,4.79108
			c0.92981-1.69815,2.07715-3.02176,3.44104-3.9722c1.36475-0.94998,2.93628-1.4252,4.71545-1.4252
			c0.44482,0,0.86902,0.0358,1.27356,0.10605c0.40442,0.07117,0.73743,0.14725,1.00049,0.22778L1959.46667,458.05515z"/>
		<path class="st21" d="M1977.99377,481.52454c1.98047,0,3.72473-0.61124,5.22998-1.83463
			c1.50623-1.22293,2.25977-2.72375,2.25977-4.5029h5.36694l0.05994,0.18213c0.1012,2.83023-1.1571,5.34683-3.77478,7.55017
			c-2.6178,2.20334-5.66504,3.30502-9.14185,3.30502c-4.771,0-8.41968-1.5563-10.94604-4.66937
			c-2.52734-3.11304-3.79004-7.02438-3.79004-11.73492v-1.2735c0-4.66937,1.26807-8.56595,3.80518-11.68884
			c2.53638-3.12335,6.18054-4.68503,10.93091-4.68503c3.84021,0,6.97876,1.13257,9.41479,3.39633
			c2.43604,2.26419,3.61279,5.04388,3.53235,8.33817l-0.06006,0.18213h-5.39734c0-2.0011-0.70789-3.70419-2.1228-5.10922
			c-1.41492-1.40463-3.20386-2.1076-5.36694-2.1076c-3.13416,0-5.37231,1.12582-6.71655,3.37708
			c-1.34424,2.25122-2.01636,5.01212-2.01636,8.28268v1.2717c0,3.35156,0.66675,6.14334,2.0011,8.37399
			C1972.59631,480.409,1974.83997,481.52454,1977.99377,481.52454z"/>
		<path class="st21" d="M2003.58545,457.17584c1.13123-1.57687,2.52112-2.80475,4.1687-3.68402s3.47241-1.31915,5.47351-1.31915
			c3.49744,0,6.2207,1.05157,8.17163,3.15378c1.95105,2.10266,2.92651,5.33655,2.92651,9.70297v20.55817h-5.97375v-20.61902
			c0-2.70856-0.58167-4.70963-1.74341-6.00372c-1.16248-1.29318-2.896-1.94067-5.20044-1.94067
			c-1.65747,0-3.15833,0.38974-4.50244,1.16745c-1.34509,0.77859-2.45129,1.83463-3.32031,3.16855v24.22742h-5.97363v-47.30215
			h5.97363V457.17584z"/>
	</g>
</g>
<g>
	<path class="st0" d="M1975.41138,656.38776h-244.17871c-8.09424,0-15.54565,2.73431-21.4967,7.3205l-37.07031-15.88641
		c-7.33618-3.14398-14.32495,5.08478-10.03467,11.81531l33.34619,52.31494v19.51141c0,19.47113,15.7843,35.25549,35.25549,35.25549
		h244.17871c19.47095,0,35.25549-15.78436,35.25549-35.25549v-39.82037
		C2010.66687,672.17212,1994.88232,656.38776,1975.41138,656.38776z"/>
	<g>
		<rect x="1747.7301" y="680.9455" class="st5" width="115.3027" height="16.45606"/>
		<rect x="1747.72998" y="716.44861" class="st5" width="207.95097" height="16.45609"/>
	</g>
</g>
<g>
	<g>
		<path class="st14" d="M1598.67126,1320.01733h-12.14575v-28.70813c0-3.354,2.71887-6.07288,6.07288-6.07288l0,0
			c3.354,0,6.07288,2.71887,6.07288,6.07288V1320.01733z"/>
		<g>
			<path class="st25" d="M1593.11365,1280.58679h-4.12891h-11.01038h-69.08496v17.89185h69.08496h11.01038h4.12891
				c4.94067,0,8.94592-4.00525,8.94592-8.94592S1598.05432,1280.58679,1593.11365,1280.58679z"/>
			<path class="st21" d="M1510.95386,1280.58679h-6.88147c-4.94067,0-8.94592,4.00525-8.94592,8.94592
				s4.00525,8.94592,8.94592,8.94592h6.88147c4.9408,0,8.94604-4.00525,8.94604-8.94592
				S1515.89465,1280.58679,1510.95386,1280.58679z"/>
		</g>
		<path class="st25" d="M1513.27673,1320.01733h-12.14575v-28.70813c0-3.354,2.71899-6.07288,6.07288-6.07288l0,0
			c3.354,0,6.07288,2.71887,6.07288,6.07288V1320.01733z"/>
	</g>
	<g>
		<path class="st14" d="M1667.12842,1342.13977v187.29956c0,12.22266-9.91089,22.12244-22.12244,22.12244h-182.68701v-231.54443
			h182.68701C1657.21753,1320.01733,1667.12842,1329.91711,1667.12842,1342.13977z"/>
		<path class="st21" d="M1450.53418,1320.01733h22.46985c12.2179,0,22.12244,9.90454,22.12244,22.12244v187.30322
			c0,12.2179-9.90454,22.12244-22.12244,22.12244h-22.46985c-12.2179,0-22.12244-9.90454-22.12244-22.12244v-187.30322
			C1428.41174,1329.92188,1438.31628,1320.01733,1450.53418,1320.01733z"/>
		<path class="st25" d="M1674.87122,1342.13977v78.44055c0,6.36243-5.15771,11.52026-11.52026,11.52026h-156.70422
			c-6.36243,0-11.52026-5.15784-11.52026-11.52026v-78.44055c0-12.22266-9.89978-22.12244-22.12244-22.12244h179.74475
			C1664.96045,1320.01733,1674.87122,1329.91711,1674.87122,1342.13977z"/>
		<rect x="1565.08862" y="1412.37854" class="st22" width="38.71426" height="12.16734"/>
	</g>
</g>
</svg>
