<?xml version="1.0" encoding="utf-8"?>
<svg id="master-artboard" viewBox="0 0 370.3558044433594 371.03936767578125" version="1.1" xmlns="http://www.w3.org/2000/svg" x="0px" y="0px" style="enable-background:new 0 0 1400 980;" width="370.3558044433594px" height="371.03936767578125px"><rect id="ee-background" x="0" y="0" width="370.3558044433594" height="371.03936767578125" style="fill: white; fill-opacity: 0; pointer-events: none;"/>


<path d="M 443.099991 268.299988 A 184.800003 184.800003 0 0 1 258.299988 453.099991 A 184.800003 184.800003 0 0 1 73.499985 268.299988 A 184.800003 184.800003 0 0 1 258.299988 83.499985 A 184.800003 184.800003 0 0 1 443.099991 268.299988 Z" class="st1" style="fill: rgb(73, 178, 229);" transform="matrix(1, 0, 0, 1, -73.05179810523987, -82.747314453125)"/>





<g transform="matrix(1, 0, 0, 1, -73.05179810523987, -82.747314453125)">
	<path d="M 341.79998779296875 383.5 L 206.6999969482422 383.5 L 174.8000030517578 350 L 174.8000030517578 149.5 L 341.79998779296875 149.5 Z" class="st2" style="fill: rgb(211, 213, 214);"/>
	<path d="M 189.300003 167 H 246.600002 V 246 H 189.300003 V 167 Z" class="st0" style="fill: rgb(0, 110, 185);"/>
	<path d="M 258.299988 167 H 327.299988 V 188.5 H 258.299988 V 167 Z" class="st1" style="fill: rgb(73, 178, 229);"/>
	<path class="st3" d="M239.8,225.3c-0.6-7.4-10.2-13.2-21.9-13.2c-11.7,0-21.3,5.9-21.9,13.2h0V246h43.9L239.8,225.3L239.8,225.3z" style="fill: rgb(248, 151, 29);"/>
	<path d="M 231.899994 196 A 14 14 0 0 1 217.899994 210 A 14 14 0 0 1 203.899994 196 A 14 14 0 0 1 217.899994 182 A 14 14 0 0 1 231.899994 196 Z" class="st4" style="fill: rgb(255, 219, 178);"/>
	<path class="st5" d="M231.9,196c0-7.7-6.3-14-14-14c-7.7,0-14,6.3-14,14c0,0,18.5-1.8,19.3-7.8L231.9,196z" style="fill: rgb(119, 103, 84);"/>
	<path class="st2" d="M206.4,214.1c0,0,10.2-5.1,23.8,0.3L218,242.2L206.4,214.1z" style="fill: rgb(211, 213, 214);"/>
	<g>
		<path class="st0" d="M267.7,209h-8.2v-1.6h8.2V209z M267.3,206.4h-0.7c-1.7,0-3.2-0.6-4.4-1.8c-1.2-1.2-1.8-2.6-1.8-4.3&#10;&#9;&#9;&#9;c0-1.7,0.6-3.1,1.8-4.3c1.2-1.2,2.7-1.8,4.4-1.8h0.7v1.6c-0.3,0-0.6,0-0.7,0c-1.3,0-2.3,0.4-3.2,1.3c-0.9,0.9-1.3,2-1.3,3.2&#10;&#9;&#9;&#9;c0,1.3,0.5,2.4,1.4,3.2c0.9,0.9,2.1,1.3,3.4,1.3c0.2,0,0.3,0,0.5,0V206.4z" style="fill: rgb(0, 110, 185);"/>
		<path class="st0" d="M276,209h-9.2v-1.6h9.2V209z M274.8,203.1c0,0.9-0.3,1.7-1,2.3c-0.7,0.7-1.5,1-2.4,1c-0.9,0-1.8-0.3-2.4-1&#10;&#9;&#9;&#9;c-0.7-0.7-1-1.4-1-2.3v-8.7h1.6v8.6c0,0.6,0.2,1,0.5,1.4c0.4,0.4,0.8,0.5,1.3,0.5c0.5,0,1-0.2,1.3-0.5c0.4-0.4,0.5-0.8,0.5-1.4&#10;&#9;&#9;&#9;v-8.6h1.6V203.1z" style="fill: rgb(0, 110, 185);"/>
		<path class="st0" d="M282,209h-6.9v-1.6h6.9V209z M281.9,206.3h-1.8l-2.2-3.8v3.8h-1.6v-11.9h0.8c1.1,0,2.1,0.4,2.8,1.1&#10;&#9;&#9;&#9;c0.8,0.8,1.2,1.7,1.2,2.7c0,1.4-0.6,2.5-1.9,3.3L281.9,206.3z M279.4,198.2c0-0.5-0.1-1-0.4-1.4c-0.3-0.4-0.7-0.7-1.1-0.9v4.4&#10;&#9;&#9;&#9;c0.5-0.2,0.9-0.4,1.1-0.9C279.3,199.2,279.4,198.7,279.4,198.2z" style="fill: rgb(0, 110, 185);"/>
		<path class="st0" d="M285.1,209h-4v-1.6h4V209z M283.9,206.3h-1.6v-11.9h1.6V206.3z" style="fill: rgb(0, 110, 185);"/>
		<path class="st0" d="M292.4,209h-8.2v-1.6h8.2V209z M292,206.4h-0.7c-1.7,0-3.2-0.6-4.4-1.8c-1.2-1.2-1.8-2.6-1.8-4.3&#10;&#9;&#9;&#9;c0-1.7,0.6-3.1,1.8-4.3c1.2-1.2,2.7-1.8,4.4-1.8h0.7v1.6c-0.3,0-0.6,0-0.7,0c-1.3,0-2.3,0.4-3.2,1.3c-0.9,0.9-1.3,2-1.3,3.2&#10;&#9;&#9;&#9;c0,1.3,0.5,2.4,1.4,3.2c0.9,0.9,2.1,1.3,3.4,1.3c0.2,0,0.3,0,0.5,0V206.4z" style="fill: rgb(0, 110, 185);"/>
		<path class="st0" d="M300.7,209h-9.2v-1.6h9.2V209z M299.6,203.1c0,0.9-0.3,1.7-1,2.3c-0.7,0.7-1.5,1-2.4,1c-0.9,0-1.8-0.3-2.4-1&#10;&#9;&#9;&#9;c-0.7-0.7-1-1.4-1-2.3v-8.7h1.6v8.6c0,0.6,0.2,1,0.5,1.4c0.4,0.4,0.8,0.5,1.3,0.5c0.5,0,1-0.2,1.3-0.5c0.4-0.4,0.5-0.8,0.5-1.4&#10;&#9;&#9;&#9;v-8.6h1.6V203.1z" style="fill: rgb(0, 110, 185);"/>
		<path class="st0" d="M305.2,209h-5.3v-1.6h5.3V209z M304.7,206.3H301v-11.9h1.6v10.4h2.1V206.3z" style="fill: rgb(0, 110, 185);"/>
		<path class="st0" d="M313.5,209h-9.2v-1.6h9.2V209z M312.3,203.1c0,0.9-0.3,1.7-1,2.3c-0.7,0.7-1.5,1-2.4,1c-0.9,0-1.8-0.3-2.4-1&#10;&#9;&#9;&#9;c-0.7-0.7-1-1.4-1-2.3v-8.7h1.6v8.6c0,0.6,0.2,1,0.5,1.4c0.4,0.4,0.8,0.5,1.3,0.5c0.5,0,1-0.2,1.3-0.5c0.4-0.4,0.5-0.8,0.5-1.4&#10;&#9;&#9;&#9;v-8.6h1.6V203.1z" style="fill: rgb(0, 110, 185);"/>
		<path class="st0" d="M325.5,209h-12.9v-1.6h12.9V209z M325.3,206.3h-1.7l-1.9-7.6l-2.6,7.8l-2.6-7.8l-1.9,7.6h-1.6l3.5-12.3&#10;&#9;&#9;&#9;l2.7,8.4l2.7-8.4L325.3,206.3z" style="fill: rgb(0, 110, 185);"/>
	</g>
	<g>
		<path class="st0" d="M281.3,210.8l-5.1,14.7h-3.7l-5-14.7h3.6l3.1,10.2c0.2,0.6,0.3,1,0.3,1.5h0.1c0-0.5,0.2-1,0.3-1.5l3-10.2&#10;&#9;&#9;&#9;H281.3z" style="fill: rgb(0, 110, 185);"/>
		<path class="st0" d="M287.6,210.8v2.6h-1.2v9.6h1.2v2.6h-5.8V223h1.2v-9.6h-1.2v-2.6H287.6z" style="fill: rgb(0, 110, 185);"/>
		<path class="st0" d="M300,213.5h-4.2v12h-3.3v-12h-4.2v-2.7H300V213.5z" style="fill: rgb(0, 110, 185);"/>
		<path class="st0" d="M314.9,225.5h-3.6l-1-3.3h-5.2l-1,3.3h-3.6l5.3-14.7h3.9L314.9,225.5z M309.5,219.7l-1.6-4.9&#10;&#9;&#9;&#9;c-0.1-0.4-0.2-0.8-0.2-1.3h-0.1c0,0.4-0.1,0.9-0.3,1.3l-1.6,5H309.5z" style="fill: rgb(0, 110, 185);"/>
		<path class="st0" d="M325.6,225.5h-8.8v-14.7h8.5v2.7h-5.2v3.3h4.8v2.7h-4.8v3.4h5.5V225.5z" style="fill: rgb(0, 110, 185);"/>
	</g>
	<path d="M 174.8000030517578 350 L 206.6999969482422 383.5 L 206.60000610351562 350 Z" class="st6" style="fill: rgb(177, 179, 182);"/>
	<path d="M 196 261 H 327.300003 V 264.8 H 196 V 261 Z" class="st7" style="fill: rgb(16, 70, 109);"/>
	<path d="M 196 272.700012 H 327.300003 V 276.500012 H 196 V 272.700012 Z" class="st7" style="fill: rgb(16, 70, 109);"/>
	<path d="M 196 283.899994 H 327.300003 V 287.699994 H 196 V 283.899994 Z" class="st7" style="fill: rgb(16, 70, 109);"/>
	<path d="M 196 296.700012 H 327.300003 V 300.500012 H 196 V 296.700012 Z" class="st7" style="fill: rgb(16, 70, 109);"/>
	<path d="M 196 308.399994 H 327.300003 V 312.199994 H 196 V 308.399994 Z" class="st7" style="fill: rgb(16, 70, 109);"/>
	<path d="M 196 319.5 H 327.300003 V 323.3 H 196 V 319.5 Z" class="st7" style="fill: rgb(16, 70, 109);"/>
	<path d="M 283.700012 358.200012 H 327.300011 V 362.000012 H 283.700012 V 358.200012 Z" class="st7" style="fill: rgb(16, 70, 109);"/>
</g>





</svg>